<?xml version="1.0" encoding="UTF-8" standalone="no" ?>
<!DOCTYPE svg PUBLIC "-//W3C//DTD SVG 1.1//EN" "http://www.w3.org/Graphics/SVG/1.1/DTD/svg11.dtd">
<svg xmlns="http://www.w3.org/2000/svg" xmlns:xlink="http://www.w3.org/1999/xlink" version="1.1" width="1080" height="1080" viewBox="0 0 1080 1080" xml:space="preserve">
<desc>Created with Fabric.js 5.2.4</desc>
<defs>
</defs>
<g transform="matrix(1 0 0 1 540 540)" id="08442eda-0b03-415f-8242-4a998309fabf"  >
<rect style="stroke: none; stroke-width: 1; stroke-dasharray: none; stroke-linecap: butt; stroke-dashoffset: 0; stroke-linejoin: miter; stroke-miterlimit: 4; fill: rgb(255,255,255); fill-rule: nonzero; opacity: 1;" vector-effect="non-scaling-stroke"  x="-540" y="-540" rx="0" ry="0" width="1080" height="1080" />
</g>
<g transform="matrix(1 0 0 1 540 540)" id="72c7eb94-3124-4f36-ab53-540761b45029"  >
</g>
<g transform="matrix(3.19 0 0 3.19 540 540)"  >
<path style="stroke: rgb(166,137,225); stroke-width: 0; stroke-dasharray: none; stroke-linecap: butt; stroke-dashoffset: 0; stroke-linejoin: miter; stroke-miterlimit: 4; fill: rgb(166,137,225); fill-rule: nonzero; opacity: 1;" vector-effect="non-scaling-stroke"  transform=" translate(-387.19, -178.49)" d="M 344.59 307.44 C 348.41999999999996 294.03 350.06 279.55 348.85999999999996 269.9 C 347.74999999999994 261.04999999999995 346.59999999999997 258.66999999999996 342.53 256.81 C 339.69 255.52 338 253.39000000000001 338.59 251.85 C 339.35999999999996 249.85999999999999 338.29999999999995 249.48 334.54999999999995 250.43 C 331.74999999999994 251.13 329.60999999999996 250.91 329.78999999999996 249.95000000000002 C 330.53999999999996 245.77 329.34 245.17000000000002 325.08 247.60000000000002 C 322.57 249.03000000000003 319.62 250.26000000000002 318.5 250.35000000000002 C 317.39 250.43000000000004 312.96 252.03000000000003 308.65 253.89000000000001 C 299.02 258.07 298.41999999999996 258.08000000000004 295.09 254.07000000000002 C 292.72999999999996 251.23000000000002 293.13 250.97000000000003 298.54999999999995 251.82000000000002 C 303.17999999999995 252.55 305.29999999999995 251.78000000000003 307.23999999999995 248.68000000000004 C 309.47999999999996 245.08000000000004 309.36999999999995 244.74000000000004 306.34 245.90000000000003 C 303.34 247.05000000000004 303.04999999999995 246.28000000000003 304.21 240.12000000000003 C 304.94 236.22000000000003 304.81 233.02000000000004 303.90999999999997 233.02000000000004 C 301.91999999999996 233.02000000000004 296.24999999999994 241.54000000000005 296.84 243.64000000000004 C 297.08 244.47000000000006 295.84999999999997 245.16000000000005 294.11999999999995 245.16000000000005 C 292.37999999999994 245.16000000000005 291.5199999999999 246.07000000000005 292.2099999999999 247.18000000000006 C 292.8999999999999 248.29000000000008 291.6599999999999 249.20000000000007 289.4699999999999 249.20000000000007 C 287.2699999999999 249.20000000000007 285.1099999999999 250.29000000000008 284.6599999999999 251.63000000000008 C 284.0599999999999 253.42000000000007 283.4799999999999 253.45000000000007 282.4299999999999 251.75000000000009 C 281.6399999999999 250.48000000000008 282.9099999999999 247.66000000000008 285.2399999999999 245.4900000000001 C 287.6499999999999 243.25000000000009 288.6199999999999 241.0100000000001 287.4899999999999 240.3100000000001 C 285.07999999999987 238.82000000000008 279.0399999999999 240.9300000000001 275.3799999999999 244.54000000000008 C 271.5099999999999 248.36000000000007 269.0599999999999 247.80000000000007 267.1099999999999 242.63000000000008 C 265.6799999999999 238.85000000000008 266.3499999999999 237.5600000000001 271.0199999999999 235.04000000000008 C 275.0899999999999 232.85000000000008 275.99999999999994 231.45000000000007 274.31999999999994 229.99000000000007 C 273.03999999999996 228.88000000000005 271.0799999999999 227.92000000000007 269.9699999999999 227.85000000000008 C 266.38999999999993 227.6500000000001 256.81999999999994 224.5300000000001 256.81999999999994 223.5600000000001 C 256.81999999999994 223.04000000000008 258.2099999999999 221.23000000000008 259.9099999999999 219.5300000000001 C 262.37999999999994 217.07000000000008 263.5999999999999 216.94000000000008 265.9799999999999 218.91000000000008 C 267.6199999999999 220.2700000000001 268.94999999999993 220.70000000000007 268.94999999999993 219.88000000000008 C 268.94999999999993 219.05000000000007 270.48999999999995 219.6200000000001 272.37999999999994 221.1500000000001 C 275.3299999999999 223.54000000000008 275.54999999999995 223.5100000000001 273.9599999999999 220.8900000000001 C 272.93999999999994 219.2200000000001 272.3999999999999 215.6200000000001 272.75999999999993 212.8900000000001 C 273.3299999999999 208.4200000000001 273.04999999999995 208.2100000000001 269.94999999999993 210.7900000000001 C 266.93999999999994 213.2900000000001 266.16999999999996 213.2100000000001 263.9599999999999 210.1900000000001 C 262.56999999999994 208.2900000000001 260.38999999999993 206.7300000000001 259.12999999999994 206.7300000000001 C 257.85999999999996 206.7300000000001 256.81999999999994 204.81000000000012 256.81999999999994 202.4700000000001 C 256.81999999999994 199.5100000000001 257.74999999999994 198.5700000000001 259.8499999999999 199.37000000000012 C 261.5199999999999 200.0100000000001 262.88999999999993 199.6600000000001 262.88999999999993 198.58000000000013 C 262.88999999999993 195.71000000000012 268.43999999999994 196.18000000000012 269.63999999999993 199.15000000000012 C 270.19999999999993 200.5400000000001 270.7299999999999 199.17000000000013 270.81999999999994 196.11000000000013 C 270.90999999999997 193.05000000000013 270.06999999999994 190.55000000000013 268.94999999999993 190.55000000000013 C 267.8399999999999 190.55000000000013 266.92999999999995 189.1900000000001 266.92999999999995 187.52000000000012 C 266.92999999999995 185.83000000000013 268.72999999999996 184.48000000000013 270.97999999999996 184.48000000000013 C 274.05999999999995 184.48000000000013 275.02 183.14000000000013 275.02 178.82000000000014 C 275.02 175.71000000000012 275.96 172.22000000000014 277.10999999999996 171.08000000000013 C 279.85999999999996 168.33000000000013 276.9 161.23000000000013 272.99999999999994 161.23000000000013 C 271.3299999999999 161.23000000000013 268.71999999999997 162.41000000000014 267.19999999999993 163.85000000000014 C 263.7699999999999 167.10000000000014 262.9699999999999 166.36000000000013 261.98999999999995 158.98000000000013 C 261.55999999999995 155.77000000000012 260.62999999999994 151.66000000000014 259.90999999999997 149.86000000000013 C 259.10999999999996 147.84000000000012 259.82 146.12000000000012 261.76 145.37000000000012 C 265.5 143.9400000000001 265.84999999999997 139.7200000000001 262.51 136.3800000000001 C 259.51 133.3800000000001 258.28999999999996 125.97000000000011 260.13 121.8700000000001 C 261.79 118.16000000000011 262.3 116.4800000000001 262.63 113.49000000000011 C 262.77 112.25000000000011 264.34 111.80000000000011 266.11 112.4800000000001 C 268.25 113.3000000000001 269.68 112.38000000000011 270.38 109.7200000000001 C 271.06 107.1000000000001 273.81 105.2600000000001 278.33 104.4200000000001 C 282.13 103.7000000000001 286.39 101.4700000000001 287.8 99.45400000000011 C 289.21000000000004 97.43700000000011 292.83 95.1680000000001 295.84000000000003 94.41300000000011 C 298.8500000000001 93.65800000000011 301.31000000000006 92.22800000000011 301.31000000000006 91.23700000000011 C 301.31000000000006 90.2450000000001 302.68000000000006 89.43400000000011 304.3500000000001 89.43400000000011 C 306.0100000000001 89.43400000000011 307.38000000000005 90.34400000000011 307.38000000000005 91.45600000000012 C 307.38000000000005 92.56800000000013 308.2900000000001 93.47800000000012 309.40000000000003 93.47800000000012 C 310.51 93.47800000000012 311.42 91.67600000000012 311.42 89.47200000000012 C 311.42 86.91200000000012 313.21000000000004 85.01900000000012 316.36 84.22800000000012 C 320.7 83.13800000000012 321.06 82.37000000000012 319.33000000000004 77.83900000000013 C 317.82000000000005 73.85800000000013 318.15000000000003 71.83200000000012 320.79 68.91500000000013 C 322.67 66.83900000000014 324.6 65.53700000000013 325.09000000000003 66.02100000000013 C 325.57000000000005 66.50500000000012 329.09000000000003 65.14500000000012 332.91 63.00000000000013 C 336.74 60.85400000000013 341.71000000000004 59.09800000000013 343.96000000000004 59.09800000000013 C 346.58000000000004 59.09800000000013 347.54 58.242000000000125 346.6 56.73200000000013 C 345.6 55.10100000000013 346.28000000000003 54.80400000000013 348.82000000000005 55.77800000000013 C 351.25000000000006 56.71000000000013 354.07000000000005 55.72000000000013 357.1 52.87100000000012 C 359.63 50.49600000000012 362.90000000000003 48.98100000000012 364.37 49.50300000000012 C 365.84000000000003 50.026000000000124 369.31 49.33600000000012 372.1 47.97000000000012 C 378.38 44.88500000000012 389.79 44.50100000000012 391.53000000000003 47.316000000000116 C 392.37 48.679000000000116 393.50000000000006 48.454000000000114 394.75000000000006 46.67400000000011 C 395.87000000000006 45.08100000000012 397.05000000000007 44.77800000000011 397.56000000000006 45.95300000000012 C 399.96000000000004 51.390000000000114 402.19000000000005 53.26100000000012 406.6600000000001 53.56500000000012 C 409.3400000000001 53.74700000000012 412.61000000000007 54.94000000000012 413.9200000000001 56.21700000000012 C 415.24000000000007 57.49300000000012 419.88000000000005 59.10700000000012 424.2300000000001 59.80300000000012 C 434.06000000000006 61.37500000000012 449.3400000000001 74.53000000000011 444.7300000000001 77.44800000000012 C 443.1600000000001 78.44500000000012 442.61000000000007 79.27400000000011 443.5300000000001 79.29100000000012 C 444.4400000000001 79.30800000000012 443.7000000000001 80.81000000000013 441.8800000000001 82.63000000000012 C 440.0600000000001 84.44900000000013 439.3100000000001 86.64000000000013 440.2200000000001 87.49800000000012 C 442.9800000000001 90.11600000000011 457.80000000000007 93.48800000000011 458.9700000000001 91.76600000000012 C 459.5700000000001 90.87700000000012 461.7200000000001 89.53800000000012 463.75000000000006 88.79100000000012 C 466.70000000000005 87.69800000000012 467.30000000000007 88.32200000000013 466.78000000000003 91.97200000000012 C 466.43 94.46900000000012 465.23 96.37100000000012 464.11 96.19900000000013 C 460.92 95.70700000000012 459.01 100.28000000000013 461.69 101.99000000000012 C 465.4 104.35000000000012 467.15 103.89000000000013 467.15 100.56000000000012 C 467.15 98.88800000000012 468.59 97.52300000000011 470.35999999999996 97.52300000000011 C 473.00999999999993 97.52300000000011 473.31999999999994 99.01200000000011 472.12999999999994 106.1200000000001 C 470.6499999999999 115.02000000000011 467.9599999999999 118.3700000000001 463.60999999999996 116.7800000000001 C 459.74999999999994 115.3600000000001 460.59 119.2800000000001 465.11999999999995 123.8100000000001 C 469.73999999999995 128.4300000000001 470.23999999999995 132.0500000000001 466.73999999999995 135.5400000000001 C 465.03 137.2600000000001 464.97999999999996 137.9700000000001 466.59999999999997 137.9700000000001 C 467.84999999999997 137.9700000000001 470.28 136.5700000000001 471.98999999999995 134.8600000000001 C 474.78 132.0700000000001 475.55999999999995 132.2200000000001 479.71 136.3800000000001 C 482.26 138.9200000000001 485.06 140.7600000000001 485.94 140.4700000000001 C 486.82 140.18000000000012 487.32 143.5700000000001 487.06 148.0000000000001 C 486.49 157.6300000000001 488.21 159.9100000000001 493.53000000000003 156.58000000000013 C 496.26000000000005 154.88000000000014 497.48 154.80000000000013 497.48 156.34000000000012 C 497.48 157.5700000000001 495.78000000000003 159.02000000000012 493.69 159.5700000000001 C 491.6 160.1100000000001 488.71999999999997 162.7600000000001 487.28 165.4400000000001 C 485.09 169.5400000000001 483.34 170.24000000000012 476.40999999999997 169.8200000000001 C 470.2 169.4400000000001 468.15999999999997 170.0700000000001 468.15999999999997 172.3500000000001 C 468.15999999999997 174.43000000000012 470.22999999999996 175.3800000000001 474.72999999999996 175.3600000000001 C 478.34999999999997 175.3500000000001 481.29999999999995 175.9400000000001 481.29999999999995 176.6600000000001 C 481.29999999999995 177.3900000000001 483.5799999999999 178.5500000000001 486.35999999999996 179.2500000000001 C 489.14 179.95000000000013 491.41999999999996 181.3900000000001 491.41999999999996 182.4500000000001 C 491.41999999999996 183.6700000000001 493.33 183.6600000000001 496.59999999999997 182.4100000000001 C 503.45 179.81000000000012 503.34 179.7600000000001 502.04999999999995 184.99000000000012 C 501.42999999999995 187.49000000000012 501.62999999999994 188.90000000000012 502.47999999999996 188.12000000000012 C 504.99999999999994 185.8200000000001 509.81999999999994 192.0700000000001 509.39 197.0700000000001 C 508.46999999999997 207.59000000000012 509.53999999999996 210.78000000000011 514 210.78000000000011 C 521.23 210.78000000000011 516.55 213.1700000000001 508.23 213.7200000000001 C 497.89000000000004 214.40000000000012 495.44 215.21000000000012 491.08000000000004 219.37000000000012 C 489.04 221.3200000000001 486.01000000000005 222.9100000000001 484.34000000000003 222.9100000000001 C 482.67 222.9100000000001 481.25000000000006 224.0500000000001 481.18 225.4400000000001 C 481.1 226.8300000000001 480.26 226.03000000000011 479.31 223.65000000000012 C 477.38 218.87000000000012 465.19 216.23000000000013 458.05 219.0400000000001 C 455.82 219.9100000000001 455.14 220.6900000000001 456.53000000000003 220.7600000000001 C 457.9200000000001 220.8300000000001 459.06 222.7100000000001 459.06 224.9300000000001 C 459.06 227.16000000000008 459.98 228.9800000000001 461.12 228.9800000000001 C 462.3 228.9800000000001 462.68 226.6100000000001 462 223.4200000000001 C 461.02 218.78000000000011 461.2 218.4400000000001 463.08 221.3900000000001 C 464.31 223.3400000000001 466.7 224.9300000000001 468.38 224.9300000000001 C 470.06 224.9300000000001 470.87 225.8400000000001 470.18 226.9500000000001 C 469.5 228.06000000000012 470.35 230.9900000000001 472.09000000000003 233.4700000000001 C 475.87 238.8600000000001 476.18 241.9400000000001 472.74 239.81000000000012 C 469.29 237.67000000000013 462.5 237.27000000000012 460.07 239.06000000000012 C 455.4 242.5000000000001 447.34 243.1000000000001 446.19 240.09000000000012 C 445.55 238.43000000000012 445.93 237.0700000000001 447.03 237.0700000000001 C 449.34999999999997 237.0700000000001 447.21 226.5400000000001 444.52 224.7700000000001 C 443.53999999999996 224.1300000000001 443.32 222.0800000000001 444.03999999999996 220.22000000000008 C 444.99999999999994 217.72000000000008 444.21999999999997 216.8400000000001 441.06999999999994 216.8400000000001 C 438.72999999999996 216.8400000000001 436.80999999999995 217.8100000000001 436.80999999999995 218.98000000000008 C 436.80999999999995 220.16000000000008 437.71999999999997 220.5600000000001 438.8299999999999 219.88000000000008 C 442.8399999999999 217.4000000000001 440.75999999999993 224.51000000000008 436.67999999999995 227.2100000000001 C 431.75999999999993 230.4800000000001 433.19999999999993 237.0700000000001 438.8299999999999 237.0700000000001 C 440.81999999999994 237.0700000000001 443.0199999999999 238.5500000000001 443.7099999999999 240.37000000000012 C 444.7999999999999 243.1900000000001 443.7899999999999 243.52000000000012 436.8499999999999 242.59000000000012 C 427.1899999999999 241.2900000000001 426.3499999999999 243.12000000000012 434.8699999999999 246.89000000000013 C 439.8399999999999 249.09000000000012 440.5599999999999 250.15000000000012 438.6299999999999 252.48000000000013 C 436.7599999999999 254.73000000000013 437.0699999999999 256.28000000000014 440.0699999999999 259.6900000000001 C 443.51999999999987 263.6200000000001 443.5499999999999 263.92000000000013 440.34999999999985 262.7500000000001 C 437.99999999999983 261.9000000000001 436.80999999999983 262.4600000000001 436.80999999999983 264.4300000000001 C 436.80999999999983 266.0700000000001 435.8999999999998 267.40000000000015 434.78999999999985 267.40000000000015 C 433.6799999999999 267.40000000000015 432.76999999999987 266.58000000000015 432.76999999999987 265.57000000000016 C 432.76999999999987 264.5600000000002 430.82999999999987 264.2400000000002 428.46999999999986 264.8600000000002 C 425.6899999999999 265.5900000000002 423.5099999999999 264.8100000000002 422.29999999999984 262.6500000000002 C 419.8199999999998 258.2200000000002 416.58999999999986 258.4000000000002 416.58999999999986 262.9700000000002 C 416.58999999999986 264.9800000000002 415.15999999999985 268.4000000000002 413.39999999999986 270.5500000000002 C 410.29999999999984 274.38000000000017 410.2499999999999 274.3600000000002 411.20999999999987 269.88000000000017 C 411.79999999999984 267.09000000000015 411.2599999999999 265.40000000000015 409.83999999999986 265.57000000000016 C 404.03999999999985 266.28000000000014 400.40999999999985 265.1700000000002 400.40999999999985 262.6800000000002 C 400.40999999999985 261.20000000000016 399.26999999999987 259.8600000000002 397.8799999999999 259.71000000000015 C 391.95999999999987 259.07000000000016 381.1299999999999 257.72000000000014 380.2899999999999 257.51000000000016 C 379.7899999999999 257.39000000000016 380.4699999999999 256.20000000000016 381.7999999999999 254.86000000000016 C 385.1399999999999 251.53000000000014 384.8499999999999 247.18000000000015 381.2999999999999 247.18000000000015 C 379.6799999999999 247.18000000000015 377.4399999999999 245.59000000000015 376.2999999999999 243.64000000000016 C 374.3599999999999 240.30000000000015 374.2399999999999 240.31000000000014 374.1799999999999 243.78000000000014 C 374.1299999999999 246.52000000000015 373.0999999999999 247.13000000000014 370.0699999999999 246.17000000000013 C 367.4899999999999 245.35000000000014 366.02999999999986 245.80000000000013 366.02999999999986 247.43000000000012 C 366.02999999999986 248.8500000000001 364.70999999999987 248.24000000000012 363.05999999999983 246.05000000000013 C 357.7099999999998 238.9700000000001 359.4499999999998 247.61000000000013 365.97999999999985 260.5500000000001 C 371.1899999999998 270.8700000000001 372.0699999999998 275.02000000000015 372.54999999999984 291.67000000000013 L 373.10999999999984 310.8800000000001 L 358.17999999999984 311.48000000000013 C 343.46999999999986 312.0700000000001 343.27999999999986 312.02000000000015 344.58999999999986 307.4400000000001 z M 430.68999999999994 252.39 C 427.9699999999999 249.67 425.94999999999993 252.42 427.56999999999994 256.64 C 428.72999999999996 259.66999999999996 429.2199999999999 259.76 430.7699999999999 257.25 C 431.86999999999995 255.47 431.8399999999999 253.53 430.68999999999994 252.39 z M 418.73999999999995 255.48999999999998 C 421.56999999999994 260.04999999999995 423.21999999999997 255.85999999999999 421.72999999999996 247.92 C 420.79999999999995 242.98 419.75999999999993 241.28 418.7 242.98 C 417.71 244.57999999999998 415.43 245.06 412.8 244.22 C 407.83 242.65 407.1 245.52 411.53000000000003 249.2 C 413.20000000000005 250.58999999999997 414.64000000000004 253.2 414.73 255.01 C 414.84000000000003 257.44 415.17 257.58 415.98 255.54 C 416.89000000000004 253.26 417.36 253.25 418.74 255.48999999999998 z M 406.84999999999997 248.76 C 405.4 247.31 404.45 247.19 404.45 248.45999999999998 C 404.45 251.15999999999997 406.84999999999997 253.54999999999998 408.19 252.2 C 408.77 251.63 408.16 250.07999999999998 406.85 248.76 z M 397.87999999999994 249.82999999999998 C 395.92999999999995 249.32 394.3399999999999 247.07 394.3399999999999 244.83999999999997 C 394.3399999999999 239.43999999999997 389.4799999999999 241.14 388.63999999999993 246.82999999999998 C 388.0799999999999 250.61999999999998 388.9099999999999 251.19 394.7099999999999 250.98999999999998 C 398.3999999999999 250.85999999999999 399.8299999999999 250.33999999999997 397.87999999999994 249.82999999999998 z M 323.55999999999995 238.67999999999998 C 323.55999999999995 237.81999999999996 322.0799999999999 235.39 320.28 233.27999999999997 C 317.23999999999995 229.73999999999998 316.7 229.68999999999997 313.2 232.68999999999997 C 308.46999999999997 236.73999999999998 308.4 238.54999999999998 312.94 239.62999999999997 C 318.31 240.90999999999997 323.56 240.43999999999997 323.56 238.67999999999998 z M 288.15999999999997 233.34999999999997 C 286.71999999999997 231.90999999999997 281.09 234.81999999999996 281.09 237.01999999999995 C 281.09 238.34999999999997 282.53999999999996 238.21999999999994 285.03999999999996 236.64999999999995 C 287.21999999999997 235.29999999999995 288.61999999999995 233.80999999999995 288.15999999999997 233.34999999999994 z M 416.96999999999997 237.70999999999998 C 415.51 237.11999999999998 413.76 237.2 413.09 237.86999999999998 C 412.41999999999996 238.53999999999996 413.60999999999996 239.01999999999998 415.75 238.92999999999998 C 418.1 238.82999999999998 418.58 238.34999999999997 416.97 237.70999999999998 z M 427.91999999999996 232.01 C 425.80999999999995 230.41 423.09 229.72 421.86999999999995 230.47 C 420.59999999999997 231.26 421.78999999999996 232.43 424.69999999999993 233.24 C 431.98999999999995 235.27 432.13999999999993 235.21 427.91999999999996 232.01000000000002 z M 309.06999999999994 226.81 C 311.72999999999996 226.7 311.5899999999999 226.33 308.38999999999993 225.02 C 303.61999999999995 223.07000000000002 300.17999999999995 225.5 302.4699999999999 229.21 C 303.6799999999999 231.16 304.2799999999999 231.21 304.88999999999993 229.38 C 305.3299999999999 228.04999999999998 307.2099999999999 226.89 309.06999999999994 226.81 z M 334.12999999999994 223.74 C 333.41999999999996 220.04000000000002 332.6499999999999 219.27 331.48999999999995 221.14000000000001 C 330.59 222.60000000000002 330.81999999999994 224.95000000000002 332.00999999999993 226.38000000000002 C 335.0199999999999 230.01000000000002 335.2699999999999 229.70000000000002 334.12999999999994 223.74000000000004 z M 428.69999999999993 219.89000000000001 C 430.9599999999999 218.49 430.36999999999995 211.67000000000002 427.7799999999999 209.31 C 426.81999999999994 208.45 426.81999999999994 209.1 427.7699999999999 210.78 C 429.23999999999995 213.36 429.00999999999993 213.41 426.17999999999995 211.12 C 423.75999999999993 209.16 421.87999999999994 209.01 419.21999999999997 210.55 C 417.21999999999997 211.72 416.71 212.70000000000002 418.09999999999997 212.74 C 422.05999999999995 212.83 421.07 218.86 417.09 218.9 C 414.21999999999997 218.92000000000002 414.09999999999997 219.27 416.41999999999996 220.74 C 419.29999999999995 222.56 425.02 222.17000000000002 428.69999999999993 219.89000000000001 z M 356.94999999999993 211.16000000000003 C 355.81999999999994 208.24000000000004 355.2299999999999 208.47000000000003 352.9099999999999 212.78000000000003 C 350.88999999999993 216.52000000000004 350.7899999999999 218.20000000000002 352.5199999999999 219.27000000000004 C 355.56999999999994 221.15000000000003 358.6499999999999 215.53000000000003 356.94999999999993 211.16000000000003 z M 382.2099999999999 216.98000000000002 C 382.2099999999999 213.45000000000002 388.8399999999999 209.32000000000002 392.81999999999994 210.38000000000002 C 395.61999999999995 211.11 394.37999999999994 203.21000000000004 391.30999999999995 200.66000000000003 C 389.2099999999999 198.92000000000002 388.2699999999999 198.85000000000002 388.2699999999999 200.42000000000002 C 388.2699999999999 201.66000000000003 386.87999999999994 202.69000000000003 385.1699999999999 202.69000000000003 C 382.6499999999999 202.69000000000003 382.4899999999999 203.48000000000002 384.3299999999999 206.92000000000002 C 386.3999999999999 210.78000000000003 386.17999999999995 211.03000000000003 381.87999999999994 209.70000000000002 C 379.2799999999999 208.91000000000003 377.79999999999995 208.94000000000003 378.59999999999997 209.78000000000003 C 379.39 210.62000000000003 379.2 212.89000000000004 378.15999999999997 214.82000000000002 C 376.28999999999996 218.31000000000003 377.29999999999995 220.89000000000001 380.52 220.89000000000001 C 381.45 220.89000000000001 382.21 219.13000000000002 382.21 216.98000000000002 z M 472.5299999999999 215.33 C 472.0299999999999 214.49 472.94999999999993 212.58 474.56999999999994 211.08 C 477.0899999999999 208.75 477.69999999999993 208.97 478.63999999999993 212.59 C 479.44999999999993 215.67000000000002 481.35999999999996 216.84 485.5799999999999 216.84 C 492.00999999999993 216.84 493.0299999999999 214.64000000000001 488.37999999999994 210.78 C 486.7099999999999 209.39000000000001 485.34999999999997 208.85 485.34999999999997 209.57 C 485.34999999999997 210.29 482.61999999999995 209.47 479.28 207.73999999999998 C 475.5 205.79 473.21 205.42999999999998 473.21 206.79999999999998 C 473.21 207.99999999999997 472.38 208.48 471.35999999999996 207.85 C 470.34999999999997 207.22 469.04999999999995 207.85 468.48999999999995 209.25 C 467.92999999999995 210.64 467.38999999999993 209.74 467.30999999999995 207.24 C 467.17999999999995 203.59 465.96999999999997 202.69 461.19999999999993 202.69 C 454.87999999999994 202.69 451.24999999999994 199.68 455.50999999999993 197.96 C 457.0399999999999 197.34 456.63999999999993 196.88 454.50999999999993 196.78 C 452.55999999999995 196.69 450.9699999999999 197.44 450.9699999999999 198.45 C 450.9699999999999 199.45999999999998 449.12999999999994 199.81 446.88999999999993 199.22 C 443.87999999999994 198.43 443.11999999999995 198.94 443.9699999999999 201.17 C 444.7299999999999 203.14 443.5399999999999 204.58999999999997 440.4999999999999 205.39 C 433.32999999999987 207.26 438.6799999999999 210.92 449.6799999999999 211.64999999999998 C 456.7999999999999 212.12999999999997 459.0599999999999 211.57999999999998 459.0599999999999 209.35999999999999 C 459.0599999999999 207.27999999999997 460.9399999999999 207.92 465.6299999999999 211.61999999999998 C 472.4899999999999 217.01999999999998 474.07999999999987 217.87999999999997 472.52999999999986 215.32999999999998 z M 404.44999999999993 206.73000000000002 C 404.44999999999993 205.62 403.0299999999999 204.71 401.29999999999995 204.71 C 399.57 204.71 398.71 205.62 399.4 206.73000000000002 C 401.01 209.35000000000002 404.45 209.35000000000002 404.45 206.73000000000002 z M 428.7199999999999 205.60000000000002 C 428.7199999999999 205.11 427.2999999999999 204.71000000000004 425.56999999999994 204.71000000000004 C 423.84 204.71000000000004 422.98999999999995 205.63000000000002 423.68999999999994 206.76000000000005 C 424.8399999999999 208.63000000000005 428.7199999999999 207.74000000000004 428.7199999999999 205.60000000000005 z M 299.9799999999999 204.05 C 300.7099999999999 204.78 301.3099999999999 204.37 301.3099999999999 203.14000000000001 C 301.3099999999999 199.29000000000002 297.3699999999999 198.25000000000003 294.3199999999999 201.31 C 290.9499999999999 204.68 292.65999999999985 207.69 296.2599999999999 204.71 C 297.5699999999999 203.62 299.2499999999999 203.32000000000002 299.9799999999999 204.05 z M 345.7999999999999 203.70000000000002 C 345.7999999999999 202.03000000000003 344.8899999999999 200.66000000000003 343.7799999999999 200.66000000000003 C 342.66999999999996 200.66000000000003 341.75999999999993 202.03000000000003 341.75999999999993 203.70000000000002 C 341.75999999999993 205.37 342.66999999999996 206.73000000000002 343.7799999999999 206.73000000000002 C 344.8899999999999 206.73000000000002 345.7999999999999 205.37 345.7999999999999 203.70000000000002 z M 415.1399999999999 202.65 C 413.9299999999999 198.03 410.51999999999987 195.15 410.51999999999987 198.76000000000002 C 410.51999999999987 200.14000000000001 408.82999999999987 200.69000000000003 406.47999999999985 200.08 C 401.48999999999984 198.77 401.14999999999986 201.74 405.96999999999986 204.55 C 412.05999999999983 208.09 416.33999999999986 207.21 415.1399999999999 202.65 z M 465.4999999999999 197.26000000000002 C 464.0399999999999 196.68 462.2999999999999 196.75000000000003 461.6299999999999 197.42000000000002 C 460.95999999999987 198.09 462.14999999999986 198.57000000000002 464.27999999999986 198.48000000000002 C 466.6399999999999 198.38000000000002 467.11999999999983 197.91000000000003 465.4999999999999 197.26000000000002 z M 406.4799999999999 192.57000000000002 C 406.4799999999999 191.46 405.5099999999999 190.55 404.3299999999999 190.55 C 403.1599999999999 190.55 402.74999999999994 191.46 403.43999999999994 192.57000000000002 C 405.03999999999996 195.17000000000002 406.47999999999996 195.17000000000002 406.47999999999996 192.57000000000002 z M 392.69999999999993 191.19000000000003 C 391.23999999999995 190.61 389.48999999999995 190.68000000000004 388.81999999999994 191.35000000000002 C 388.1499999999999 192.02 389.3399999999999 192.50000000000003 391.47999999999996 192.41000000000003 C 393.83 192.32000000000002 394.30999999999995 191.84000000000003 392.7 191.19000000000003 z M 301.30999999999995 185.28000000000003 C 301.30999999999995 184.84000000000003 299.94999999999993 184.48000000000002 298.28 184.48000000000002 C 296.61 184.48000000000002 295.25 185.37 295.25 186.44000000000003 C 295.25 187.52000000000004 296.61 187.88000000000002 298.28 187.24000000000004 C 299.94999999999993 186.60000000000005 301.30999999999995 185.72000000000003 301.30999999999995 185.28000000000003 z M 441.69999999999993 187.30000000000004 C 444.9799999999999 186.04000000000005 446.30999999999995 182.06000000000003 443.1499999999999 182.97000000000003 C 442.1799999999999 183.25000000000003 439.5499999999999 181.23000000000002 437.30999999999995 178.48000000000002 C 433.80999999999995 174.20000000000002 432.7699999999999 173.88000000000002 429.9599999999999 176.20000000000002 C 425.4099999999999 179.98000000000002 425.87999999999994 181.82000000000002 431.75999999999993 183.29000000000002 C 434.5399999999999 183.99 436.80999999999995 185.45000000000002 436.80999999999995 186.55 C 436.80999999999995 188.86 437.3999999999999 188.95000000000002 441.69999999999993 187.3 z M 307.75999999999993 185.13000000000005 C 306.29999999999995 184.54000000000005 304.54999999999995 184.61000000000004 303.87999999999994 185.29000000000005 C 303.2099999999999 185.96000000000004 304.4099999999999 186.44000000000005 306.53999999999996 186.35000000000005 C 308.89 186.25000000000006 309.36999999999995 185.77000000000004 307.76 185.13000000000005 z M 383.43999999999994 176.90000000000006 C 387.7799999999999 171.18000000000006 387.0899999999999 167.75000000000006 382.2099999999999 170.80000000000007 C 379.9799999999999 172.19000000000005 378.1599999999999 174.92000000000007 378.1599999999999 176.88000000000008 C 378.1599999999999 181.4000000000001 380.00999999999993 181.41000000000008 383.4399999999999 176.9000000000001 z M 363.65999999999997 172.52000000000007 C 364.24999999999994 168.51000000000008 363.84999999999997 168.25000000000006 360.11999999999995 170.24000000000007 C 355.0199999999999 172.98000000000008 354.53 178.26000000000008 359.4599999999999 177.55000000000007 C 361.3999999999999 177.27000000000007 363.2999999999999 175.00000000000006 363.6599999999999 172.52000000000007 z M 291.2 173.24000000000007 C 291.2 171.51000000000008 290.28 170.66000000000005 289.15 171.36000000000007 C 288.02 172.0600000000001 287.60999999999996 173.48000000000008 288.25 174.51000000000008 C 289.99 177.32000000000008 291.2 176.79000000000008 291.2 173.24000000000007 z M 310.62 170.88000000000005 C 309.95 170.20000000000005 309.47 171.40000000000006 309.56 173.53000000000006 C 309.66 175.89000000000007 310.14 176.37000000000006 310.78000000000003 174.75000000000006 C 311.37 173.29000000000005 311.3 171.55000000000007 310.62 170.88000000000005 z M 322.55 172.35000000000005 C 321.86 171.24000000000004 319.76 170.34000000000006 317.88 170.36000000000004 C 314.93 170.39000000000004 314.88 170.66000000000005 317.49 172.35000000000005 C 321.45 174.91000000000005 324.13 174.91000000000005 322.55 172.35000000000005 z M 359.96000000000004 164.40000000000006 C 359.96000000000004 162.32000000000005 358.8 162.73000000000008 355.92 165.82000000000005 C 350.75 171.37000000000006 350.75 173.09000000000006 355.92 169.86000000000004 C 358.14000000000004 168.47000000000006 359.96000000000004 166.02000000000004 359.96000000000004 164.40000000000003 z M 418.61 164.26000000000008 C 418.61 163.15000000000006 417.02000000000004 162.25000000000009 415.07 162.27000000000007 C 412.05 162.30000000000007 411.96999999999997 162.59000000000006 414.57 164.26000000000008 C 418.38 166.73000000000008 418.61 166.73000000000008 418.61 164.26000000000008 z M 303.34000000000003 160.10000000000008 C 303.34000000000003 158.92000000000007 302.43 158.52000000000007 301.31000000000006 159.2100000000001 C 298.7200000000001 160.8100000000001 298.7200000000001 162.2400000000001 301.31000000000006 162.2400000000001 C 302.43000000000006 162.2400000000001 303.34000000000003 161.2800000000001 303.34000000000003 160.1000000000001 z M 401.21000000000004 147.74000000000007 C 400.22 146.15000000000006 400.85 145.80000000000007 403.11 146.66000000000005 C 406.6 148.00000000000006 407.65000000000003 144.71000000000006 404.93 141.00000000000006 C 402.83 138.15000000000006 395.41 138.61000000000007 391.54 141.82000000000005 C 386.84000000000003 145.73000000000005 387.5 147.70000000000005 393.84000000000003 148.66000000000005 C 396.89000000000004 149.12000000000006 400.13000000000005 149.64000000000004 401.03000000000003 149.80000000000004 C 401.93 149.97000000000003 402.01000000000005 149.04000000000005 401.21000000000004 147.74000000000004 z M 368.05000000000007 142.02000000000007 C 368.05000000000007 140.90000000000006 367.14000000000004 139.99000000000007 366.0300000000001 139.99000000000007 C 364.92000000000013 139.99000000000007 364.0100000000001 140.90000000000006 364.0100000000001 142.02000000000007 C 364.0100000000001 143.13000000000008 364.92000000000013 144.04000000000008 366.0300000000001 144.04000000000008 C 367.14000000000004 144.04000000000008 368.05000000000007 143.13000000000008 368.05000000000007 142.02000000000007 z M 305.36000000000007 138.21000000000006 C 305.36000000000007 136.27000000000007 297.00000000000006 133.52000000000007 295.55000000000007 134.97000000000006 C 294.87000000000006 135.65000000000006 301.05000000000007 138.90000000000006 304.8500000000001 139.86000000000004 C 305.13000000000005 139.94000000000005 305.36000000000007 139.19000000000005 305.36000000000007 138.21000000000004 z M 371.18000000000006 127.81000000000006 C 377.58000000000004 124.38000000000005 377.63000000000005 121.32000000000006 371.24000000000007 123.75000000000006 C 367.6600000000001 125.12000000000006 365.70000000000005 124.84000000000006 363.93000000000006 122.72000000000006 C 362.61000000000007 121.12000000000006 360.7200000000001 120.31000000000006 359.7300000000001 120.92000000000006 C 356.76000000000005 122.76000000000006 357.7100000000001 125.49000000000007 361.7800000000001 126.78000000000006 C 363.9200000000001 127.46000000000006 365.3900000000001 129.53000000000006 365.1000000000001 131.47000000000006 C 364.8200000000001 133.38000000000005 364.9500000000001 133.93000000000006 365.4000000000001 132.70000000000005 C 365.8500000000001 131.47000000000003 368.4500000000001 129.27000000000004 371.18000000000006 127.81000000000004 z M 403.9200000000001 119.26000000000006 C 403.5400000000001 113.17000000000006 400.80000000000007 111.63000000000007 394.55000000000007 114.01000000000006 C 383.7700000000001 118.11000000000006 386.05000000000007 123.34000000000006 398.7700000000001 123.67000000000006 C 403.1800000000001 123.79000000000006 404.1500000000001 122.96000000000006 403.9200000000001 119.26000000000006 z M 413.55000000000007 121.79000000000006 C 414.24000000000007 120.68000000000006 412.88000000000005 119.77000000000007 410.5200000000001 119.77000000000007 C 408.16000000000014 119.77000000000007 406.80000000000007 120.68000000000006 407.4900000000001 121.79000000000006 C 409.09000000000015 124.38000000000007 411.9500000000001 124.38000000000007 413.5500000000001 121.79000000000006 z M 459.06000000000006 115.61000000000007 C 459.06000000000006 114.43000000000006 458.15000000000003 114.03000000000007 457.0400000000001 114.71000000000006 C 454.44000000000005 116.31000000000006 454.44000000000005 117.75000000000007 457.0400000000001 117.75000000000007 C 458.1500000000001 117.75000000000007 459.06000000000006 116.78000000000007 459.06000000000006 115.61000000000007 z M 325.58000000000004 113.70000000000007 C 325.58000000000004 112.59000000000007 324.67 111.68000000000008 323.56000000000006 111.68000000000008 C 322.4500000000001 111.68000000000008 321.5400000000001 112.59000000000007 321.5400000000001 113.70000000000007 C 321.5400000000001 114.81000000000007 322.4500000000001 115.72000000000007 323.56000000000006 115.72000000000007 C 324.67 115.72000000000007 325.58000000000004 114.81000000000007 325.58000000000004 113.70000000000007 z M 368.05000000000007 113.70000000000007 C 368.05000000000007 112.59000000000007 367.0900000000001 111.68000000000008 365.9100000000001 111.68000000000008 C 364.7300000000001 111.68000000000008 364.3300000000001 112.59000000000007 365.0200000000001 113.70000000000007 C 366.6200000000001 116.29000000000008 368.05000000000007 116.29000000000008 368.05000000000007 113.70000000000007 z M 370.55000000000007 95.07100000000007 C 371.76000000000005 91.44100000000007 369.87000000000006 83.36700000000008 367.82000000000005 83.36700000000008 C 366.83000000000004 83.36700000000008 366.03000000000003 82.45600000000007 366.03000000000003 81.34400000000008 C 366.03000000000003 80.23200000000008 366.71000000000004 79.43000000000008 367.55 79.56100000000008 C 368.38 79.69300000000008 370.43 79.67900000000007 372.1 79.53000000000007 C 374.58000000000004 79.30800000000008 374.63 78.94700000000007 372.38 77.51600000000008 C 369.27 75.54700000000008 361.98 76.89500000000008 361.98 79.43800000000007 C 361.98 80.35500000000008 362.8 81.61200000000008 363.81 82.23100000000008 C 364.81 82.85000000000008 365.33 86.54400000000008 364.97 90.44000000000008 C 364.51000000000005 95.34300000000009 365.15000000000003 97.52300000000008 367.02000000000004 97.52300000000008 C 368.52000000000004 97.52300000000008 370.1 96.42000000000009 370.55 95.07100000000008 z M 433.63000000000005 95.26200000000007 C 432.7900000000001 93.89600000000007 424.68000000000006 95.22200000000007 424.68000000000006 96.72500000000007 C 424.68000000000006 97.13900000000007 426.89000000000004 97.29500000000006 429.5900000000001 97.07100000000007 C 432.2900000000001 96.84800000000007 434.11000000000007 96.03300000000007 433.6300000000001 95.26200000000007 z M 396.36000000000007 85.38900000000007 C 396.36000000000007 82.76300000000006 390.9100000000001 82.76300000000006 389.2900000000001 85.38900000000007 C 388.6000000000001 86.50100000000006 389.9100000000001 87.41100000000007 392.2000000000001 87.41100000000007 C 394.4900000000001 87.41100000000007 396.3600000000001 86.50100000000008 396.3600000000001 85.38900000000007 z" stroke-linecap="round" />
</g>
<g transform="matrix(0 0 0 0 0 0)"  >
<g style=""   >
</g>
</g>
<g transform="matrix(0 0 0 0 0 0)"  >
<g style=""   >
</g>
</g>
<g transform="matrix(0 0 0 0 0 0)"  >
<g style=""   >
</g>
</g>
</svg>